<?xml version="1.0" encoding="UTF-8" standalone="no"?>
<!DOCTYPE svg PUBLIC "-//W3C//DTD SVG 1.1//EN"
 "http://www.w3.org/Graphics/SVG/1.1/DTD/svg11.dtd">
<!-- Generated by graphviz version 2.40.1 (20161225.0304)
 -->
<!-- Title: G Pages: 1 -->
<svg width="330pt" height="310pt"
 viewBox="0.00 0.00 330.42 310.40" xmlns="http://www.w3.org/2000/svg" xmlns:xlink="http://www.w3.org/1999/xlink">
<g id="graph0" class="graph" transform="scale(1 1) rotate(0) translate(4 306.4)">
<title>G</title>
<polygon fill="#ffffff" stroke="transparent" points="-4,4 -4,-306.4 326.4196,-306.4 326.4196,4 -4,4"/>
<!-- 0.0.0.0/0 -->
<g id="node1" class="node">
<title>0.0.0.0/0</title>
<ellipse fill="none" stroke="#000000" cx="162.4816" cy="-284.4" rx="45.2107" ry="18"/>
<text text-anchor="middle" x="162.4816" y="-280.2" font-family="Times,serif" font-size="14.00" fill="#000000">0.0.0.0/0</text>
</g>
<!-- External&#45;LB&#45;sg -->
<g id="node2" class="node">
<title>External&#45;LB&#45;sg</title>
<ellipse fill="none" stroke="#000000" cx="81.4816" cy="-195.6" rx="71.2036" ry="18"/>
<text text-anchor="middle" x="81.4816" y="-191.4" font-family="Times,serif" font-size="14.00" fill="#000000">External&#45;LB&#45;sg</text>
</g>
<!-- 0.0.0.0/0&#45;&gt;External&#45;LB&#45;sg -->
<g id="edge1" class="edge">
<title>0.0.0.0/0&#45;&gt;External&#45;LB&#45;sg</title>
<path fill="none" stroke="#000000" d="M146.864,-267.2785C134.8064,-254.0598 117.9447,-235.5743 104.365,-220.687"/>
<polygon fill="#000000" stroke="#000000" points="106.9307,-218.3062 97.6057,-213.2768 101.759,-223.0236 106.9307,-218.3062"/>
<text text-anchor="middle" x="139.9816" y="-235.8" font-family="Times,serif" font-size="14.00" fill="#000000">443</text>
</g>
<!-- Bastion&#45;EC2&#45;sg -->
<g id="node6" class="node">
<title>Bastion&#45;EC2&#45;sg</title>
<ellipse fill="none" stroke="#000000" cx="243.4816" cy="-195.6" rx="72.9508" ry="18"/>
<text text-anchor="middle" x="243.4816" y="-191.4" font-family="Times,serif" font-size="14.00" fill="#000000">Bastion&#45;EC2&#45;sg</text>
</g>
<!-- 0.0.0.0/0&#45;&gt;Bastion&#45;EC2&#45;sg -->
<g id="edge5" class="edge">
<title>0.0.0.0/0&#45;&gt;Bastion&#45;EC2&#45;sg</title>
<path fill="none" stroke="#000000" d="M178.0992,-267.2785C190.1568,-254.0598 207.0185,-235.5743 220.5982,-220.687"/>
<polygon fill="#000000" stroke="#000000" points="223.2042,-223.0236 227.3575,-213.2768 218.0325,-218.3062 223.2042,-223.0236"/>
<text text-anchor="middle" x="216.4816" y="-235.8" font-family="Times,serif" font-size="14.00" fill="#000000">22</text>
</g>
<!-- App1&#45;EC2&#45;sg -->
<g id="node3" class="node">
<title>App1&#45;EC2&#45;sg</title>
<ellipse fill="none" stroke="#000000" cx="161.4816" cy="-106.8" rx="64.8506" ry="18"/>
<text text-anchor="middle" x="161.4816" y="-102.6" font-family="Times,serif" font-size="14.00" fill="#000000">App1&#45;EC2&#45;sg</text>
</g>
<!-- External&#45;LB&#45;sg&#45;&gt;App1&#45;EC2&#45;sg -->
<g id="edge2" class="edge">
<title>External&#45;LB&#45;sg&#45;&gt;App1&#45;EC2&#45;sg</title>
<path fill="none" stroke="#000000" d="M97.6708,-177.63C109.4588,-164.5453 125.5846,-146.6457 138.6757,-132.1146"/>
<polygon fill="#000000" stroke="#000000" points="141.4965,-134.2125 145.5895,-124.4402 136.2958,-129.5272 141.4965,-134.2125"/>
<text text-anchor="middle" x="136.4816" y="-147" font-family="Times,serif" font-size="14.00" fill="#000000">80</text>
</g>
<!-- RDS&#45;MySQL&#45;sg -->
<g id="node4" class="node">
<title>RDS&#45;MySQL&#45;sg</title>
<ellipse fill="none" stroke="#000000" cx="76.4816" cy="-18" rx="76.4632" ry="18"/>
<text text-anchor="middle" x="76.4816" y="-13.8" font-family="Times,serif" font-size="14.00" fill="#000000">RDS&#45;MySQL&#45;sg</text>
</g>
<!-- App1&#45;EC2&#45;sg&#45;&gt;RDS&#45;MySQL&#45;sg -->
<g id="edge3" class="edge">
<title>App1&#45;EC2&#45;sg&#45;&gt;RDS&#45;MySQL&#45;sg</title>
<path fill="none" stroke="#000000" d="M144.6884,-89.256C132.0811,-76.0851 114.6395,-57.8638 100.55,-43.1443"/>
<polygon fill="#000000" stroke="#000000" points="102.9742,-40.6153 93.5309,-35.8115 97.9174,-45.4557 102.9742,-40.6153"/>
<text text-anchor="middle" x="141.4816" y="-58.2" font-family="Times,serif" font-size="14.00" fill="#000000">3306</text>
</g>
<!-- Redis&#45;Cluster&#45;sg -->
<g id="node5" class="node">
<title>Redis&#45;Cluster&#45;sg</title>
<ellipse fill="none" stroke="#000000" cx="246.4816" cy="-18" rx="75.8759" ry="18"/>
<text text-anchor="middle" x="246.4816" y="-13.8" font-family="Times,serif" font-size="14.00" fill="#000000">Redis&#45;Cluster&#45;sg</text>
</g>
<!-- App1&#45;EC2&#45;sg&#45;&gt;Redis&#45;Cluster&#45;sg -->
<g id="edge4" class="edge">
<title>App1&#45;EC2&#45;sg&#45;&gt;Redis&#45;Cluster&#45;sg</title>
<path fill="none" stroke="#000000" d="M178.2749,-89.256C190.8822,-76.0851 208.3237,-57.8638 222.4133,-43.1443"/>
<polygon fill="#000000" stroke="#000000" points="225.0459,-45.4557 229.4323,-35.8115 219.9891,-40.6153 225.0459,-45.4557"/>
<text text-anchor="middle" x="225.4816" y="-58.2" font-family="Times,serif" font-size="14.00" fill="#000000">6379</text>
</g>
<!-- Bastion&#45;EC2&#45;sg&#45;&gt;App1&#45;EC2&#45;sg -->
<g id="edge6" class="edge">
<title>Bastion&#45;EC2&#45;sg&#45;&gt;App1&#45;EC2&#45;sg</title>
<path fill="none" stroke="#000000" d="M226.8877,-177.63C214.805,-164.5453 198.2761,-146.6457 184.8577,-132.1146"/>
<polygon fill="#000000" stroke="#000000" points="187.1266,-129.4125 177.771,-124.4402 181.9839,-134.1615 187.1266,-129.4125"/>
<text text-anchor="middle" x="216.4816" y="-147" font-family="Times,serif" font-size="14.00" fill="#000000">22</text>
</g>
</g>
</svg>
